<svg width="152" height="82" viewBox="0 0 152 82" fill="none" xmlns="http://www.w3.org/2000/svg">
<path d="M141.469 52.2941C141.469 50.9224 141.965 49.7398 142.959 48.7465C143.999 47.7059 145.229 47.1855 146.648 47.1855C148.115 47.1855 149.344 47.7295 150.338 48.8175C151.378 49.8581 151.899 51.0643 151.899 52.436C151.899 53.8078 151.378 55.0139 150.338 56.0546C149.344 57.0952 148.138 57.6155 146.719 57.6155C145.253 57.6155 143.999 57.0952 142.959 56.0546C141.965 55.0139 141.469 53.7605 141.469 52.2941Z" fill="white"/>
<path d="M20.8845 11.4261C22.3576 11.4261 24.0207 11.4024 25.874 11.3551C27.7747 11.2604 29.3903 11.142 30.7209 11C30.8634 11.1894 30.9347 11.6154 30.9347 12.2782C30.9822 12.8937 30.9109 13.3198 30.7209 13.5565C30.4358 13.5565 29.9368 13.6038 29.224 13.6985C28.5588 13.7458 27.9173 13.8642 27.2995 14.0535C26.7293 14.1956 26.3729 14.4323 26.2303 14.7637C25.9452 15.4738 25.7789 16.3733 25.7314 17.4622C25.6839 18.5037 25.6601 19.7819 25.6601 21.2969V46.9325C25.6601 52.1874 24.8285 56.6849 23.1654 60.4249C21.5022 64.1649 19.1263 67.0291 16.0376 69.0175C12.9489 71.0058 9.28992 72 5.06075 72C4.39548 72 3.65894 71.8343 2.85112 71.5029C2.04331 71.2189 1.47308 70.9585 1.14045 70.7218C0.902856 70.343 0.665262 69.9406 0.427669 69.5145C0.142556 69.0885 0 68.4967 0 67.7392C0 66.5557 0.427669 65.4905 1.28301 64.5437C2.13834 63.5968 3.11248 63.1234 4.20541 63.1234C5.01323 63.1234 5.72601 63.3601 6.34375 63.8335C6.9615 64.3069 7.55548 64.8277 8.1257 65.3958C8.69593 65.9639 9.2424 66.4847 9.7651 66.9581C10.3353 67.4789 10.8818 67.7392 11.4045 67.7392C12.8776 67.7392 13.923 66.8397 14.5407 65.0407C15.206 63.2891 15.6099 60.8747 15.7525 57.7974C15.895 54.7676 15.9663 51.3353 15.9663 47.5006V21.2969C15.9663 19.7819 15.9425 18.5037 15.895 17.4622C15.8475 16.3733 15.6812 15.4738 15.3961 14.7637C15.301 14.4323 14.9446 14.1956 14.3269 14.0535C13.7092 13.8642 13.0677 13.7458 12.4024 13.6985C11.7371 13.6038 11.2382 13.5565 10.9056 13.5565C10.7155 13.3198 10.6204 12.8937 10.6204 12.2782C10.668 11.6154 10.763 11.1894 10.9056 11C12.2836 11.142 13.923 11.2604 15.8237 11.3551C17.7245 11.4024 19.4114 11.4261 20.8845 11.4261Z" fill="white"/>
<path d="M54.9048 38.837C54.9048 38.6003 54.881 38.1032 54.8335 37.3458C54.8335 36.5409 54.786 35.7361 54.6909 34.9313C54.5959 34.0792 54.4533 33.4874 54.2632 33.156C54.0732 32.7773 53.6455 32.4932 52.9802 32.3038C52.3625 32.1145 51.7448 31.9724 51.127 31.8778C50.5093 31.7831 50.1054 31.7357 49.9153 31.7357C49.8678 31.6884 49.8202 31.499 49.7727 31.1676C49.7252 30.7889 49.7252 30.4338 49.7727 30.1024C49.8202 29.7711 49.8915 29.6054 49.9866 29.6054C51.7448 29.4633 53.4792 29.1793 55.1899 28.7532C56.9481 28.3271 58.5637 27.8537 60.0368 27.3329C61.5099 26.8122 62.6741 26.3388 63.5294 25.9127C63.767 25.96 64.0283 26.1494 64.3135 26.4808C64.5986 26.8122 64.7411 27.0252 64.7411 27.1199C64.6461 27.404 64.5035 28.0194 64.3135 28.9662C64.1709 29.8657 64.0759 30.5759 64.0284 31.0966C63.9808 31.8541 63.9571 32.7062 63.9571 33.6531C63.9571 34.5999 63.9571 35.1917 63.9571 35.4284V49.4179C63.9571 49.9387 63.9808 50.4121 64.0284 50.8382C64.0759 51.2643 64.2659 51.6667 64.5986 52.0454C64.8837 52.3768 65.3589 52.5662 66.0241 52.6135C66.6894 52.6608 67.2121 52.6845 67.5923 52.6845C67.6398 52.6845 67.6873 52.6845 67.7348 52.6845C67.8774 52.8265 67.9487 53.1343 67.9487 53.6077C67.9487 54.0811 67.8061 54.5309 67.521 54.9569C66.4756 55.0516 65.3114 55.241 64.0284 55.525C62.7929 55.7617 61.5574 56.0221 60.3219 56.3062C59.1339 56.5902 58.0885 56.8269 57.1856 57.0163C56.3303 57.253 55.7838 57.3714 55.5463 57.3714C55.1186 57.3714 54.9048 56.8033 54.9048 55.6671V54.6019C54.9048 54.5072 54.881 54.4125 54.8335 54.3178C54.8335 54.1758 54.786 54.1521 54.6909 54.2468C54.3108 54.4835 53.6455 54.8622 52.6951 55.383C51.7923 55.8564 50.6756 56.2825 49.3451 56.6612C48.0145 57.04 46.5414 57.2293 44.9258 57.2293C42.6924 57.2293 40.9105 56.6612 39.58 55.525C38.297 54.3415 37.3703 52.8029 36.8001 50.9092C36.2774 49.0155 36.016 46.9798 36.016 44.8021V38.837C36.016 38.6003 35.9923 38.1032 35.9448 37.3458C35.9448 36.5409 35.8973 35.7361 35.8022 34.9313C35.7072 34.0792 35.5646 33.4874 35.3745 33.156C35.1845 32.7773 34.7568 32.4932 34.0915 32.3038C33.4738 32.1145 32.8323 31.9724 32.167 31.8778C31.5493 31.7831 31.1454 31.7357 30.9553 31.7357C30.9078 31.6884 30.8603 31.499 30.8127 31.1676C30.7652 30.7889 30.7652 30.4338 30.8127 30.1024C30.8603 29.7711 30.9315 29.6054 31.0266 29.6054C32.7848 29.4633 34.543 29.1793 36.3012 28.7532C38.0594 28.3271 39.675 27.8537 41.1481 27.3329C42.6212 26.8122 43.7854 26.3388 44.6407 25.9127C44.8783 25.96 45.1159 26.1494 45.3535 26.4808C45.6386 26.8122 45.7812 27.0252 45.7812 27.1199C45.6861 27.404 45.5436 28.0194 45.3535 28.9662C45.2109 29.8657 45.1159 30.5759 45.0684 31.0966C45.0209 31.8541 44.9971 32.7062 44.9971 33.6531C44.9971 34.5999 44.9971 35.1917 44.9971 35.4284V41.6775C44.9971 45.3702 45.3535 48.187 46.0663 50.1281C46.8266 52.0217 48.2996 52.9686 50.4855 52.9686C51.4359 52.9686 52.41 52.6845 53.4079 52.1164C54.4058 51.501 54.9048 50.9329 54.9048 50.4121V38.837Z" fill="white"/>
<path d="M94.5181 25.9127C97.1792 25.9127 99.175 26.5281 100.505 27.759C101.884 28.9426 102.81 30.7652 103.285 33.227C103.761 35.6414 103.998 38.6713 103.998 42.3167V46.7905C103.998 48.2581 104.022 49.5363 104.069 50.6251C104.117 51.714 104.283 52.6135 104.568 53.3236C104.711 53.6077 105.067 53.8444 105.638 54.0338C106.255 54.2231 106.897 54.3652 107.562 54.4598C108.275 54.5072 108.774 54.5545 109.059 54.6019C109.249 54.8386 109.32 55.2646 109.273 55.8801C109.273 56.4955 109.201 56.9216 109.059 57.1583C107.728 57.0163 106.16 56.8979 104.355 56.8033C102.596 56.7086 100.981 56.6612 99.5076 56.6612C98.0345 56.6612 96.5614 56.7086 95.0883 56.8033C93.6153 56.8979 92.1897 57.0163 90.8117 57.1583C90.6691 56.9216 90.5741 56.4955 90.5266 55.8801C90.5266 55.2646 90.6216 54.8386 90.8117 54.6019C91.2868 54.5545 91.9521 54.4598 92.8074 54.3178C93.7103 54.1284 94.2568 53.7971 94.4468 53.3236C94.6844 52.7082 94.827 51.927 94.8745 50.9802C94.922 50.0334 94.9458 48.9445 94.9458 47.7136C94.9458 47.5716 94.9458 47.4296 94.9458 47.2875C94.9458 47.0982 94.9458 46.9325 94.9458 46.7905V41.3225C94.9458 39.6655 94.8032 38.1032 94.5181 36.6356C94.2805 35.1207 93.8291 33.9135 93.1638 33.014C92.4986 32.0671 91.5482 31.5937 90.3127 31.5937C89.4099 31.5937 88.4832 31.8304 87.5329 32.3038C86.5825 32.7299 85.7747 33.2507 85.1094 33.8661C84.4917 34.4342 84.1828 34.955 84.1828 35.4284V46.7905C84.1828 48.0687 84.2066 49.2996 84.2541 50.4831C84.3016 51.6667 84.4679 52.6135 84.753 53.3236C84.8956 53.6077 85.2044 53.8444 85.6796 54.0338C86.2023 54.2231 86.7488 54.3652 87.319 54.4598C87.9368 54.5072 88.3882 54.5545 88.6733 54.6019C88.8634 54.8386 88.9347 55.2646 88.8871 55.8801C88.8871 56.4955 88.8159 56.9216 88.6733 57.1583C87.3428 57.0163 85.8697 56.8979 84.2541 56.8033C82.6384 56.7086 81.0941 56.6612 79.621 56.6612C78.1479 56.6612 76.5323 56.7086 74.7741 56.8033C73.0634 56.8979 71.5191 57.0163 70.141 57.1583C69.9985 56.9216 69.9034 56.4955 69.8559 55.8801C69.8559 55.2646 69.9509 54.8386 70.141 54.6019C70.4736 54.5545 70.9488 54.5072 71.5666 54.4598C72.2318 54.3652 72.8733 54.2231 73.4911 54.0338C74.1088 53.8444 74.4652 53.6077 74.5603 53.3236C74.8454 52.6135 75.0117 51.714 75.0592 50.6251C75.1067 49.5363 75.1305 48.2581 75.1305 46.7905V38.837C75.1305 38.6003 75.1067 38.1032 75.0592 37.3458C75.0592 36.5409 75.0117 35.7361 74.9166 34.9313C74.8216 34.0792 74.679 33.4874 74.489 33.156C74.2989 32.7773 73.8712 32.4932 73.206 32.3038C72.5882 32.1145 71.9705 31.9724 71.3527 31.8778C70.735 31.7831 70.3311 31.7357 70.141 31.7357C70.0935 31.6884 70.046 31.499 69.9985 31.1676C69.9509 30.7889 69.9509 30.4338 69.9985 30.1024C70.046 29.7711 70.1173 29.6054 70.2123 29.6054C71.9705 29.4633 73.7049 29.1793 75.4156 28.7532C77.1738 28.3271 78.7894 27.8537 80.2625 27.3329C81.7356 26.8122 82.8998 26.3388 83.7551 25.9127C83.9927 25.9127 84.2541 26.0784 84.5392 26.4098C84.8243 26.6938 84.9669 26.9305 84.9669 27.1199C84.9193 27.3093 84.8243 27.7354 84.6817 28.3981C84.5867 29.0136 84.4917 29.6054 84.3966 30.1735C84.3016 30.7416 84.2541 31.0493 84.2541 31.0966C84.2541 31.3333 84.2778 31.4754 84.3254 31.5227C84.4204 31.5227 84.5867 31.4043 84.8243 31.1676C85.4896 30.4102 86.3687 29.629 87.4616 28.8242C88.602 28.0194 89.79 27.3329 91.0255 26.7648C92.3085 26.1967 93.4727 25.9127 94.5181 25.9127Z" fill="white"/>
<path d="M118.396 40.1152C118.396 42.5297 118.753 44.518 119.466 46.0803C120.178 47.5953 121.057 48.7551 122.103 49.56C123.148 50.3648 124.217 50.9329 125.31 51.2643C126.451 51.5483 127.401 51.6903 128.162 51.6903C130.205 51.6903 131.82 51.3116 133.008 50.5541C134.196 49.7493 135.171 48.9682 135.931 48.2107C136.168 48.2581 136.358 48.4238 136.501 48.7078C136.691 48.9919 136.786 49.2522 136.786 49.4889C136.786 50.1044 136.715 50.5305 136.572 50.7672C136.145 51.3826 135.361 52.2348 134.22 53.3236C133.08 54.4125 131.63 55.383 129.872 56.2352C128.162 57.0873 126.189 57.5134 123.956 57.5134C121.39 57.5134 118.99 56.9453 116.757 55.8091C114.524 54.6255 112.718 52.9686 111.34 50.8382C110.009 48.6605 109.344 46.0567 109.344 43.0268C109.344 40.849 109.772 38.7423 110.627 36.7066C111.482 34.6236 112.623 32.7773 114.048 31.1676C115.522 29.5107 117.185 28.2088 119.038 27.2619C120.891 26.3151 122.816 25.8417 124.811 25.8417C127.092 25.8417 129.017 26.1967 130.585 26.9069C132.153 27.617 133.389 28.5165 134.291 29.6054C135.242 30.6942 135.931 31.8541 136.359 33.085C136.786 34.2685 137 35.3574 137 36.3516C137 37.109 136.81 37.7718 136.43 38.3399C136.097 38.908 135.669 39.2158 135.147 39.2631C133.579 39.4051 131.82 39.5471 129.872 39.6892C127.924 39.7839 125.952 39.8785 123.956 39.9732C121.96 40.0206 120.107 40.0679 118.396 40.1152ZM118.468 37.3458C118.61 37.3458 119.062 37.3458 119.822 37.3458C120.63 37.2984 121.533 37.2511 122.531 37.2037C123.576 37.109 124.55 37.038 125.453 36.9907C126.356 36.896 127.021 36.825 127.449 36.7776C127.876 36.7303 128.138 36.5883 128.233 36.3516C128.328 36.0675 128.375 35.8308 128.375 35.6414C128.375 34.5526 128.233 33.4874 127.948 32.4459C127.663 31.4043 127.211 30.5285 126.593 29.8184C125.976 29.1083 125.144 28.7532 124.099 28.7532C123.053 28.7532 122.174 29.0846 121.461 29.7474C120.749 30.4102 120.155 31.215 119.679 32.1618C119.252 33.1087 118.943 34.0792 118.753 35.0733C118.563 36.0202 118.468 36.7776 118.468 37.3458Z" fill="white"/>
</svg>
