<?xml version="1.0" encoding="UTF-8"?>
<svg id="Layer_2" xmlns="http://www.w3.org/2000/svg" width="100%" height="22px" viewBox="0 0 667.63 146.84">
    <defs>
        <style>.cls-1{fill:currentColor;}</style>
    </defs>
    <g id="New">
        <g id="Logo_Turquoise">
            <polygon class="cls-1" points="92.04 88.85 37.2 0 0 0 0 144.31 31.2 144.31 31.2 51.65 91.04 144.31 123.24 144.31 123.24 0 92.04 0 92.04 88.85"></polygon>
            <path class="cls-1" d="M184.67,122.46c-13.26,0-20.48-6.05-22.23-18.92l70.79-.39v-7.61c0-31.79-19.11-51.87-49.73-51.87s-49.92,21.26-49.92,51.68,21.06,51.48,50.51,51.48c23.14,0,40.73-10.39,47.3-27.24-2.41-.71-25.26-8.25-25.26-8.25-2.15,7.02-10.14,11.12-21.45,11.12Zm-.98-54.41c12.09,0,19.7,6.63,19.7,16.97h-40.56c2.34-11.7,8.97-16.97,20.87-16.97Z"></path>
            <path class="cls-1" d="M442.02,119.93c-7.02,0-11.9-3.71-11.9-15.99v-32.18h21.65v-24.96h-21.65V16.58h-22.03s.06,30.23-24,30.23h-25.87l-9.36,31.79c-.98,3.51-5.66,20.67-6.83,27.69-.98-6.24-5.66-24.38-6.63-27.69l-9.17-31.79h-30.81l-9.95,31.79c-4.29,13.65-5.26,17.36-7.02,27.69-1.56-9.75-3.71-19.31-6.05-27.69l-8.97-31.79h-31.59l31.4,97.5h29.25l9.36-30.42c6.24-20.48,8-28.08,8.78-32.18,.58,4.1,3.12,15.6,8,31.59l9.36,31.01h27.89l25.39-72.54h18.82v38.42c0,27.3,14.04,36.47,34.13,36.47,8.19,0,15.6-1.56,21.26-4.29l-3.51-24.18c-3.51,1.17-7.02,1.75-9.95,1.75Z"></path>
            <path class="cls-1" d="M510.65,43.88c-31.2,0-53.82,20.67-53.82,51.48s22.62,51.29,53.82,51.29,53.63-20.48,53.63-51.29-22.62-51.48-53.63-51.48Zm0,77.59c-15.04,0-25.27-10.44-25.27-26.31s10.23-26.11,25.27-26.11,25.06,10.44,25.06,26.11-10.23,26.31-25.06,26.31Z"></path>
            <path class="cls-1" d="M630.97,43.68c-12.68,0-23.79,4.88-29.84,13.26l-1.95-10.14h-28.28v97.5h30.03v-53.43c0-12.09,7.61-19.89,19.5-19.89,10.34,0,17.16,8,17.16,20.28v53.04h30.03v-60.26c0-25.55-13.46-40.37-36.66-40.37Z"></path>
        </g>
    </g>
</svg> 