<svg xmlns="http://www.w3.org/2000/svg" xmlns:xlink="http://www.w3.org/1999/xlink" width="105.912" height="79.133" viewBox="0 0 105.912 79.133">
  <defs>
    <clipPath id="clip-path">
      <rect id="Rectangle_5" data-name="Rectangle 5" width="105.912" height="79.133" fill="#fff"/>
    </clipPath>
  </defs>
  <g id="Group_5" data-name="Group 5" transform="translate(-1086 -690)">
    <g id="Group_3" data-name="Group 3" transform="translate(1086 690)">
      <rect id="Rectangle_1" data-name="Rectangle 1" width="23.436" height="23.436" transform="translate(0 55.5)" fill="#fff"/>
      <rect id="Rectangle_2" data-name="Rectangle 2" width="23.436" height="23.436" transform="translate(0 27.457)" fill="#fff"/>
      <rect id="Rectangle_3" data-name="Rectangle 3" width="23.436" height="23.436" transform="translate(0 0.454)" fill="#fff"/>
      <rect id="Rectangle_4" data-name="Rectangle 4" width="23.436" height="23.436" transform="translate(27.476 55.5)" fill="#fff"/>
      <g id="Group_2" data-name="Group 2" transform="translate(0 0)">
        <g id="Group_1" data-name="Group 1" clip-path="url(#clip-path)">
          <path id="Path_1" data-name="Path 1" d="M50.179,26.753H26.743V50.189A23.436,23.436,0,0,0,50.179,26.753" transform="translate(0.765 0.765)" fill="#fff"/>
          <path id="Path_2" data-name="Path 2" d="M53.833,50.189A23.436,23.436,0,0,0,77.269,26.753H53.833Z" transform="translate(1.539 0.765)" fill="#fff"/>
          <path id="Path_3" data-name="Path 3" d="M53.833,0V23.436H77.269A23.436,23.436,0,0,0,53.833,0" transform="translate(1.539 0)" fill="#fff"/>
          <path id="Path_4" data-name="Path 4" d="M26.916,0V23.436H50.352A23.436,23.436,0,0,0,26.916,0" transform="translate(0.77 0)" fill="#fff"/>
          <path id="Path_5" data-name="Path 5" d="M76.329,9.122V1.769A39.423,39.423,0,0,0,66.6,0h-.425A29.755,29.755,0,0,1,76.329,9.122" transform="translate(1.892 0)" fill="#fff"/>
          <path id="Path_6" data-name="Path 6" d="M53.833,54.35v21.7a39.67,39.67,0,0,0,22.849-.28V53.946c-3.408,2.625-7.674,3.372-12.309,3.372a20.1,20.1,0,0,1-10.54-2.967" transform="translate(1.539 1.542)" fill="#fff"/>
          <path id="Path_7" data-name="Path 7" d="M79.976,74.237a39.744,39.744,0,0,0,20.3-20.292h-20.3Z" transform="translate(2.287 1.542)" fill="#fff"/>
          <path id="Path_8" data-name="Path 8" d="M79.976,3.2v20.14h20.23A39.744,39.744,0,0,0,79.976,3.2" transform="translate(2.287 0.091)" fill="#fff"/>
          <path id="Path_9" data-name="Path 9" d="M101.763,26.753H80.454a20.168,20.168,0,0,1-.478,22.992v.936H101.8a39.7,39.7,0,0,0-.034-23.928" transform="translate(2.287 0.765)" fill="#fff"/>
          <path id="Path_10" data-name="Path 10" d="M49.842,10.99V.173H38.792A29.748,29.748,0,0,1,49.842,10.99" transform="translate(1.109 0.005)" fill="#fff"/>
          <path id="Path_11" data-name="Path 11" d="M39.184,49.844H50V38.794a29.748,29.748,0,0,1-10.817,11.05" transform="translate(1.121 1.109)" fill="#fff"/>
        </g>
      </g>
    </g>
  </g>
</svg>
