<?xml version="1.0" encoding="UTF-8"?>
<svg xmlns="http://www.w3.org/2000/svg" width="170" height="24" fill="none">
    <g>
        <path fill="currentColor" d="M12.306 5.22h4.42l-.055 18.469h-4.608v-6.464c-1.213 1.357-3.031 1.854-4.638 1.854-3.635 0-7.152-2.089-7.152-7.1 0-5.143 3.426-7.153 7.093-7.153 1.88 0 4.122.862 4.758 2.089h.182V5.219ZM8.7 7.487c-3.001 0-3.637 2.871-3.637 4.438 0 1.645.667 4.49 3.637 4.49 3.061 0 3.607-2.819 3.607-4.49 0-3.707-2.212-4.438-3.607-4.438ZM29.387 16.991c-1.697 1.645-3.334 2.088-5.152 2.088-4.971 0-5.153-3.864-5.153-5.456v-8.3h4.608v7.673c0 2.61.879 3.42 2.576 3.42 2.91 0 3.123-2.69 3.123-3.655V5.322h4.607v13.262H29.39v-1.592l-.002-.001ZM36.063 11.927c0-5.22 4.152-7.1 8.426-7.1 4.82 0 8.427 2.27 8.427 7.1 0 4.882-3.637 7.153-8.426 7.153-4.79 0-8.428-2.27-8.428-7.153Zm12.063 0c0-4.228-2.515-4.438-3.636-4.438-1.031 0-3.638.209-3.638 4.438 0 1.697.364 4.49 3.638 4.49 3.304 0 3.636-2.818 3.636-4.49ZM53.688 5.321h2.789l.062-4.708h4.591l-.045 4.708h3.273v2.663h-3.273v6.996c0 .6.393 1.175 1.818 1.175.697 0 1.213-.157 1.455-.235v2.662c-1.183.21-2.759.366-3.76.366-3.06 0-4.121-1.148-4.121-3.863v-7.1h-2.788V5.32ZM81.808 14.747c-1.213 3.759-5.184 4.333-8.002 4.333-2.03 0-8.275-.366-8.275-7.153 0-4.569 3.607-7.1 8.64-7.1 7.546 0 7.82 5.742 7.941 7.36l.03.732h-11.82c0 1.279.727 3.498 3.697 3.498 1.334 0 2.729-.496 3.122-1.671h4.668v.001Zm-4.456-4.046c-.09-2.845-2.121-3.21-3.243-3.21-2.728 0-3.698 1.853-3.789 3.21h7.032Z"></path>
        <path fill="#0477D1" d="M88.454 5.323v1.931c1.697-2.089 3.425-2.428 4.729-2.428 2.91 0 4.03 1.54 4.515 2.663 2.032-2.585 4.244-2.663 5.275-2.663 4.971 0 5.244 3.916 5.244 5.691v8.067h-4.608v-7.805c0-1.384-.243-3.29-2.304-3.29-1.303 0-2.819.836-2.819 3.472v7.623h-4.608v-7.805c0-1.984-.485-3.29-2.334-3.29-1.182 0-2.789.862-2.789 3.472v7.623h-4.608V5.323h4.307ZM126.544 14.747c-1.212 3.759-5.183 4.333-8.001 4.333-2.031 0-8.275-.366-8.275-7.153 0-4.569 3.607-7.1 8.638-7.1 7.547 0 7.82 5.742 7.943 7.36l.029.732h-11.82c0 1.279.727 3.498 3.698 3.498 1.333 0 2.728-.496 3.122-1.671h4.668l-.002.001Zm-4.455-4.046c-.091-2.845-2.122-3.21-3.244-3.21-2.728 0-3.698 1.853-3.789 3.21h7.033ZM140.402 18.584v-1.592h-.061c-1.546 1.462-2.728 2.089-4.668 2.089-4.335 0-7.002-2.924-7.002-7.18 0-4.176 2.697-7.074 7.093-7.074 1.546 0 3.577.652 4.638 1.827V.311h4.608v18.273h-4.608ZM137.038 7.49c-2.576 0-3.577 2.166-3.577 4.463 0 2.794 1.395 4.464 3.577 4.464 1.848 0 3.607-1.175 3.607-4.464 0-2.898-1.304-4.463-3.607-4.463ZM147.37.31h4.608v3.107h-4.608V.311Zm4.608 5.012v13.262h-4.608V5.322h4.608ZM154.785 9.604c.243-4.594 5.546-4.778 7.244-4.778 6.941 0 7.062 3.42 7.062 4.96l-.113 4.696c-.03 1.462-.131 3.666.747 3.85v.213l-4.666.039-.394-1.306h-.091c-1.213 1.332-3.243 1.8-5.153 1.8-4.911 0-5.364-2.714-5.364-3.837 0-3.028 2.94-3.733 5.728-4.15 3.395-.418 4.607-.21 4.698-1.488v-.366c-.091-1.75-1.971-1.75-2.485-1.75-.849 0-2.82.158-2.82 2.116h-4.395.002Zm9.729 2.663c-1.364.548-1.273.417-3.031.705-.97.13-2.697.417-2.697 1.905 0 1.252 1.485 1.54 2.364 1.54 1.122 0 3.364-.652 3.364-3.315v-.835Z"></path>
    </g>
</svg> 